<?xml version="1.0" standalone="no"?>
<!DOCTYPE svg PUBLIC "-//W3C//DTD SVG 20010904//EN"
 "http://www.w3.org/TR/2001/REC-SVG-20010904/DTD/svg10.dtd">
<svg version="1.0" xmlns="http://www.w3.org/2000/svg"
 width="128.000000pt" height="128.000000pt" viewBox="0 0 128.000000 128.000000"
 preserveAspectRatio="xMidYMid meet">
<metadata>
Created by potrace 1.11, written by Peter Selinger 2001-2013
</metadata>
<g transform="translate(0.000000,128.000000) scale(0.100000,-0.100000)"
fill="#000000" stroke="none">
<path d="M0 640 l0 -640 640 0 640 0 0 640 0 640 -640 0 -640 0 0 -640z m1130
535 c0 -41 -6 -63 -21 -84 -20 -27 -99 -268 -99 -303 0 -14 4 -15 29 -7 16 6
44 9 63 7 l33 -3 -37 -19 c-21 -10 -38 -22 -38 -26 0 -4 -6 -8 -12 -7 -44 1
-57 -5 -66 -32 -8 -22 -7 -31 1 -34 8 -3 7 -9 -5 -18 -10 -9 -20 -41 -26 -84
-13 -90 -11 -137 7 -143 8 -3 11 0 7 6 -3 6 -2 13 3 16 5 4 12 2 16 -3 3 -6
12 -8 19 -5 9 4 14 -3 14 -21 0 -14 -3 -24 -6 -21 -9 10 -43 -15 -36 -26 4 -6
3 -8 -3 -5 -6 4 -26 0 -44 -8 -34 -14 -34 -14 -6 -15 15 0 27 -5 27 -10 0 -6
-14 -9 -32 -8 -24 2 -33 -2 -36 -14 -3 -14 4 -18 30 -19 l33 -2 -38 -6 c-21
-3 -38 -9 -37 -13 0 -5 0 -15 0 -24 0 -10 6 -14 15 -10 8 3 15 1 15 -5 0 -6
-12 -9 -27 -7 -29 3 -29 1 -20 78 1 14 6 31 10 38 5 6 4 12 -2 12 -6 0 -16 18
-22 40 -13 43 -32 48 -37 12 -2 -15 2 -22 12 -22 13 0 16 -10 15 -50 -2 -35
-6 -50 -16 -50 -7 0 -17 -8 -20 -17 -8 -20 -42 -53 -55 -53 -5 0 -7 3 -5 8 3
4 -1 21 -8 37 -12 26 -13 27 -14 8 -1 -12 -11 -29 -23 -37 -25 -18 -42 -21
-33 -6 10 16 -15 90 -30 90 -8 0 -15 7 -15 16 0 10 7 14 23 12 17 -2 25 -13
33 -48 l11 -45 13 27 c10 21 10 31 1 42 -7 8 -8 17 -3 20 13 8 52 -5 53 -18 1
-6 2 -23 3 -38 3 -43 13 -43 39 -1 30 48 39 73 27 73 -6 0 -10 7 -10 15 0 8
-9 15 -20 15 -11 0 -20 -7 -20 -15 0 -8 -9 -15 -20 -15 -11 0 -20 7 -20 15 0
8 -9 15 -20 15 -11 0 -20 -7 -20 -15 0 -8 -9 -15 -20 -15 -11 0 -20 7 -20 15
0 21 -30 19 -46 -2 -13 -17 -15 -17 -25 0 -11 19 -39 23 -39 6 0 -5 -5 -7 -12
-3 -6 4 -8 3 -4 -4 6 -11 -48 -62 -118 -109 -22 -15 -44 -32 -47 -36 -3 -5 -8
-8 -10 -6 -2 1 -28 -6 -57 -15 -95 -32 -178 0 -214 82 -39 86 -21 257 39 377
28 55 124 193 139 199 8 3 14 12 14 20 0 7 9 16 20 19 11 3 20 12 20 21 0 8 6
13 13 10 7 -2 21 2 32 10 11 9 14 16 8 16 -7 0 -13 5 -13 11 0 9 4 9 14 0 15
-12 73 2 91 23 11 13 100 14 128 2 10 -5 23 -19 28 -32 4 -13 15 -24 24 -24 8
0 15 -7 15 -15 0 -8 -7 -15 -15 -15 -8 0 -15 -9 -15 -20 0 -11 5 -20 11 -20 6
0 13 9 16 20 3 11 14 20 24 20 11 0 19 7 19 15 0 8 9 15 20 15 11 0 20 -7 20
-15 0 -8 9 -15 20 -15 11 0 20 7 20 15 0 8 7 15 15 15 9 0 18 -7 21 -15 4 -8
14 -15 23 -15 17 0 43 35 144 190 61 93 111 140 148 140 16 0 19 -8 19 -55z
m-540 -145 c0 -5 -4 -10 -10 -10 -5 0 -10 5 -10 10 0 6 5 10 10 10 6 0 10 -4
10 -10z m80 0 c0 -5 -4 -10 -10 -10 -5 0 -10 5 -10 10 0 6 5 10 10 10 6 0 10
-4 10 -10z m80 0 c0 -5 -4 -10 -10 -10 -5 0 -10 5 -10 10 0 6 5 10 10 10 6 0
10 -4 10 -10z m80 0 c0 -5 -4 -10 -10 -10 -5 0 -10 5 -10 10 0 6 5 10 10 10 6
0 10 -4 10 -10z m-196 -41 c-8 -14 -24 -10 -24 6 0 9 6 12 15 9 8 -4 12 -10 9
-15z m76 1 c0 -5 -4 -10 -10 -10 -5 0 -10 5 -10 10 0 6 5 10 10 10 6 0 10 -4
10 -10z m80 0 c0 -5 -4 -10 -10 -10 -5 0 -10 5 -10 10 0 6 5 10 10 10 6 0 10
-4 10 -10z m80 6 c0 -3 -4 -8 -10 -11 -5 -3 -10 -1 -10 4 0 6 5 11 10 11 6 0
10 -2 10 -4z m-192 -44 c2 -7 -6 -12 -17 -12 -21 0 -27 11 -14 24 9 9 26 2 31
-12z m77 8 c3 -6 -1 -13 -10 -16 -19 -8 -30 0 -20 15 8 14 22 14 30 1z m75 -5
c0 -8 -4 -15 -9 -15 -13 0 -22 16 -14 24 11 11 23 6 23 -9z m195 -255 c3 -5 1
-10 -4 -10 -6 0 -11 5 -11 10 0 6 2 10 4 10 3 0 8 -4 11 -10z m-38 -126 c-9
-9 -28 6 -21 18 4 6 10 6 17 -1 6 -6 8 -13 4 -17z m-2 -64 c3 -5 -1 -10 -9
-10 -9 0 -16 5 -16 10 0 6 4 10 9 10 6 0 13 -4 16 -10z m45 -34 c0 -3 -4 -8
-10 -11 -5 -3 -10 -1 -10 4 0 6 5 11 10 11 6 0 10 -2 10 -4z m-240 -152 c0
-14 -12 -19 -23 -8 -9 9 4 35 14 28 5 -3 9 -12 9 -20z m-230 1 c0 -8 -7 -15
-15 -15 -8 0 -15 7 -15 15 0 8 7 15 15 15 8 0 15 -7 15 -15z m501 8 c0 -5 2
-27 4 -50 5 -41 5 -41 -40 -56 l-45 -16 0 35 c0 20 -5 34 -12 34 -8 1 -5 7 6
15 11 8 16 21 13 30 -5 12 2 15 33 15 22 0 40 -3 41 -7z m-546 -43 c3 -5 -1
-10 -9 -10 -9 0 -16 5 -16 10 0 6 4 10 9 10 6 0 13 -4 16 -10z m80 0 c3 -5 -1
-10 -9 -10 -9 0 -16 5 -16 10 0 6 4 10 9 10 6 0 13 -4 16 -10z m-125 -40 c0
-5 -4 -10 -10 -10 -5 0 -10 5 -10 10 0 6 5 10 10 10 6 0 10 -4 10 -10z m80 0
c0 -5 -4 -10 -10 -10 -5 0 -10 5 -10 10 0 6 5 10 10 10 6 0 10 -4 10 -10z m80
0 c0 -5 -4 -10 -10 -10 -5 0 -10 5 -10 10 0 6 5 10 10 10 6 0 10 -4 10 -10z"/>
<path d="M370 887 c-79 -76 -97 -103 -95 -136 2 -17 -1 -31 -6 -31 -5 0 -9 6
-9 13 -1 24 -49 -99 -60 -153 -7 -30 -16 -73 -20 -95 -6 -28 -6 -42 3 -47 9
-6 9 -8 0 -8 -19 0 -16 -71 3 -120 16 -40 54 -70 89 -70 26 0 75 29 71 43 -1
6 -1 9 1 5 3 -5 14 -3 24 3 15 8 18 14 10 23 -14 16 -2 29 14 16 9 -7 16 -6
25 5 9 10 9 15 1 15 -6 0 -11 7 -11 15 0 18 27 20 32 3 3 -7 7 -8 10 -3 9 16
-10 55 -27 55 -8 0 -15 7 -15 16 0 9 -9 18 -20 21 -11 3 -20 11 -20 18 0 7 9
15 20 18 11 3 20 10 20 17 0 7 -9 14 -20 17 -23 6 -27 33 -6 33 26 0 30 23 8
41 -28 22 -28 35 -1 42 17 5 19 9 9 27 -6 11 -15 18 -19 15 -5 -2 -11 4 -14
15 -3 11 -12 20 -21 20 -9 0 -16 7 -16 15 0 8 7 15 15 15 8 0 15 -7 15 -15 0
-22 27 -30 44 -12 13 13 12 16 -10 27 -29 16 -31 36 -4 43 11 3 20 10 20 17 0
7 -9 14 -20 17 -22 6 -28 33 -6 33 7 0 16 -9 19 -20 3 -11 12 -20 21 -20 15 0
17 5 15 28 0 4 10 9 23 12 13 3 23 12 23 20 0 8 4 18 9 21 4 4 3 10 -3 13 -6
4 -11 2 -11 -3 0 -6 -7 -11 -15 -11 -8 0 -15 7 -15 15 0 28 -35 15 -80 -28z
m70 -2 c0 -8 -7 -15 -15 -15 -16 0 -20 12 -8 23 11 12 23 8 23 -8z m-80 -80
c0 -8 -7 -15 -15 -15 -8 0 -15 7 -15 15 0 8 7 15 15 15 8 0 15 -7 15 -15z
m-40 -35 c0 -5 -7 -10 -15 -10 -8 0 -15 5 -15 10 0 6 7 10 15 10 8 0 15 -4 15
-10z m0 -76 c0 -17 -22 -14 -28 4 -2 7 3 12 12 12 9 0 16 -7 16 -16z m-40 -34
c0 -5 -4 -10 -10 -10 -5 0 -10 5 -10 10 0 6 5 10 10 10 6 0 10 -4 10 -10z m80
-5 c0 -8 -7 -15 -15 -15 -8 0 -15 7 -15 15 0 8 7 15 15 15 8 0 15 -7 15 -15z
m-40 -36 c0 -5 -7 -9 -15 -9 -15 0 -20 12 -9 23 8 8 24 -1 24 -14z m-80 7 c0
-3 -4 -8 -10 -11 -5 -3 -10 -1 -10 4 0 6 5 11 10 11 6 0 10 -2 10 -4z m35 -36
c3 -5 1 -10 -4 -10 -6 0 -11 5 -11 10 0 6 2 10 4 10 3 0 8 -4 11 -10z m83 -8
c2 -7 -3 -12 -12 -12 -9 0 -16 7 -16 16 0 17 22 14 28 -4z m-123 -32 c3 -5 1
-10 -4 -10 -6 0 -11 5 -11 10 0 6 2 10 4 10 3 0 8 -4 11 -10z m83 -1 c-2 -6
-8 -10 -13 -10 -5 0 -11 4 -13 10 -2 6 4 11 13 11 9 0 15 -5 13 -11z m-38 -39
c0 -5 -4 -10 -10 -10 -5 0 -10 5 -10 10 0 6 5 10 10 10 6 0 10 -4 10 -10z m80
0 c0 -5 -7 -10 -15 -10 -8 0 -15 5 -15 10 0 6 7 10 15 10 8 0 15 -4 15 -10z
m-40 -41 c0 -5 -7 -9 -15 -9 -15 0 -20 12 -9 23 8 8 24 -1 24 -14z m40 -27 c0
-13 -12 -22 -22 -16 -10 6 -1 24 13 24 5 0 9 -4 9 -8z m-40 -42 c0 -5 -4 -10
-10 -10 -5 0 -10 5 -10 10 0 6 5 10 10 10 6 0 10 -4 10 -10z m78 -1 c-2 -6 -8
-10 -13 -10 -5 0 -11 4 -13 10 -2 6 4 11 13 11 9 0 15 -5 13 -11z m-38 -39 c0
-5 -7 -10 -15 -10 -8 0 -15 5 -15 10 0 6 7 10 15 10 8 0 15 -4 15 -10z"/>
<path d="M682 883 c2 -10 10 -18 18 -18 8 0 16 8 18 18 2 12 -3 17 -18 17 -15
0 -20 -5 -18 -17z"/>
<path d="M760 882 c0 -26 11 -34 27 -21 20 17 16 39 -7 39 -13 0 -20 -7 -20
-18z"/>
<path d="M493 863 c-21 -7 -15 -33 7 -33 11 0 20 6 20 14 0 18 -11 25 -27 19z"/>
<path d="M888 850 c-11 -13 -14 -22 -7 -26 12 -7 29 13 29 34 0 15 -1 15 -22
-8z"/>
<path d="M640 845 c0 -8 9 -15 20 -15 11 0 20 7 20 15 0 8 -9 15 -20 15 -11 0
-20 -7 -20 -15z"/>
<path d="M720 845 c0 -8 9 -15 20 -15 11 0 20 7 20 15 0 8 -9 15 -20 15 -11 0
-20 -7 -20 -15z"/>
<path d="M445 821 c-8 -15 3 -31 21 -31 9 0 14 7 12 17 -4 20 -24 28 -33 14z"/>
<path d="M765 819 c-4 -6 -5 -13 -2 -16 7 -7 27 6 27 18 0 12 -17 12 -25 -2z"/>
<path d="M610 804 c0 -17 22 -14 28 4 2 7 -3 12 -12 12 -9 0 -16 -7 -16 -16z"/>
<path d="M683 808 c2 -7 10 -13 17 -13 7 0 15 6 18 13 2 7 -5 12 -18 12 -13 0
-20 -5 -17 -12z"/>
<path d="M856 805 c-3 -9 0 -15 9 -15 8 0 15 7 15 15 0 8 -4 15 -9 15 -5 0
-11 -7 -15 -15z"/>
<path d="M405 780 c-8 -14 3 -30 21 -30 8 0 14 9 14 20 0 21 -24 28 -35 10z"/>
<path d="M487 784 c-9 -9 4 -35 14 -28 5 3 9 12 9 20 0 14 -12 19 -23 8z"/>
<path d="M730 775 c0 -9 5 -15 11 -13 6 2 11 8 11 13 0 5 -5 11 -11 13 -6 2
-11 -4 -11 -13z"/>
<path d="M650 770 c0 -5 4 -10 9 -10 6 0 13 5 16 10 3 6 -1 10 -9 10 -9 0 -16
-4 -16 -10z"/>
<path d="M447 744 c-9 -10 2 -24 19 -24 8 0 14 7 14 15 0 15 -21 21 -33 9z"/>
<path d="M413 713 c-21 -7 -15 -33 7 -33 11 0 20 6 20 14 0 18 -11 25 -27 19z"/>
<path d="M805 690 c-3 -5 3 -10 14 -10 12 0 21 5 21 10 0 6 -6 10 -14 10 -8 0
-18 -4 -21 -10z"/>
<path d="M451 666 c-9 -10 -9 -16 -1 -21 17 -10 37 12 24 25 -8 8 -15 6 -23
-4z"/>
<path d="M774 667 c-3 -9 -10 -15 -14 -12 -5 3 -11 2 -14 -3 -2 -4 6 -9 19
-10 28 -2 42 15 26 31 -7 7 -12 6 -17 -6z"/>
<path d="M837 674 c-3 -3 -3 -12 -1 -19 3 -7 -4 -15 -16 -18 -22 -6 -23 -28
-2 -35 9 -3 42 56 42 74 0 6 -16 5 -23 -2z"/>
<path d="M530 660 c0 -5 5 -10 10 -10 6 0 10 5 10 10 0 6 -4 10 -10 10 -5 0
-10 -4 -10 -10z"/>
<path d="M404 629 c-3 -6 -2 -15 4 -21 13 -13 32 -2 32 18 0 16 -26 19 -36 3z"/>
<path d="M495 629 c-10 -15 3 -25 16 -12 7 7 7 13 1 17 -6 3 -14 1 -17 -5z"/>
<path d="M570 620 c0 -5 5 -10 10 -10 6 0 10 5 10 10 0 6 -4 10 -10 10 -5 0
-10 -4 -10 -10z"/>
<path d="M442 588 c7 -19 38 -22 38 -4 0 10 -9 16 -21 16 -12 0 -19 -5 -17
-12z"/>
<path d="M535 589 c-10 -15 3 -25 16 -12 7 7 7 13 1 17 -6 3 -14 1 -17 -5z"/>
<path d="M765 589 c-10 -15 1 -23 20 -15 9 3 13 10 10 16 -8 13 -22 13 -30 -1z"/>
<path d="M608 583 c7 -3 16 -2 19 1 4 3 -2 6 -13 5 -11 0 -14 -3 -6 -6z"/>
<path d="M407 564 c-14 -15 -6 -34 14 -34 14 0 19 5 17 17 -3 18 -20 27 -31
17z"/>
<path d="M807 563 c-13 -12 -7 -33 8 -33 8 0 15 9 15 20 0 20 -11 26 -23 13z"/>
<path d="M490 545 c0 -8 7 -15 15 -15 8 0 15 7 15 15 0 8 -7 15 -15 15 -8 0
-15 -7 -15 -15z"/>
<path d="M565 550 c-3 -5 1 -10 9 -10 9 0 16 5 16 10 0 6 -4 10 -9 10 -6 0
-13 -4 -16 -10z"/>
<path d="M730 545 c0 -9 5 -15 11 -13 6 2 11 8 11 13 0 5 -5 11 -11 13 -6 2
-11 -4 -11 -13z"/>
<path d="M665 540 c-3 -5 -1 -10 4 -10 6 0 11 5 11 10 0 6 -2 10 -4 10 -3 0
-8 -4 -11 -10z"/>
<path d="M444 519 c-10 -17 13 -36 27 -22 12 12 4 33 -11 33 -5 0 -12 -5 -16
-11z"/>
<path d="M764 519 c-10 -17 13 -36 27 -22 12 12 4 33 -11 33 -5 0 -12 -5 -16
-11z"/>
<path d="M526 511 c-3 -5 0 -11 8 -14 15 -6 26 1 26 15 0 11 -27 10 -34 -1z"/>
<path d="M690 510 c0 -5 7 -10 16 -10 8 0 12 5 9 10 -3 6 -10 10 -16 10 -5 0
-9 -4 -9 -10z"/>
<path d="M806 493 c-12 -12 -6 -43 9 -43 8 0 15 9 15 19 0 21 -13 34 -24 24z"/>
<path d="M400 475 c0 -21 30 -31 40 -14 11 17 3 29 -21 29 -10 0 -19 -7 -19
-15z"/>
<path d="M484 479 c-10 -17 13 -36 27 -22 12 12 4 33 -11 33 -5 0 -12 -5 -16
-11z"/>
<path d="M647 484 c-13 -13 -7 -24 14 -24 11 0 19 5 17 12 -5 14 -22 21 -31
12z"/>
<path d="M727 484 c-13 -13 -7 -24 14 -24 11 0 19 5 17 12 -5 14 -22 21 -31
12z"/>
<path d="M443 444 c-9 -23 13 -40 32 -24 12 10 13 16 4 26 -15 18 -28 18 -36
-2z"/>
<path d="M763 444 c-8 -21 13 -42 28 -27 13 13 5 43 -11 43 -6 0 -13 -7 -17
-16z"/>
<path d="M607 443 c-13 -12 -7 -23 13 -23 11 0 20 7 20 15 0 15 -21 21 -33 8z"/>
<path d="M680 435 c0 -8 9 -15 20 -15 13 0 20 -7 20 -20 0 -13 7 -20 20 -20
13 0 20 7 20 20 0 13 -7 20 -20 20 -11 0 -20 7 -20 15 0 8 -9 15 -20 15 -11 0
-20 -7 -20 -15z"/>
<path d="M572 409 c-16 -25 -15 -29 8 -29 13 0 20 7 20 19 0 28 -14 33 -28 10z"/>
<path d="M647 414 c-14 -15 -6 -34 14 -34 14 0 19 5 17 17 -3 18 -20 27 -31
17z"/>
<path d="M1015 319 c-10 -15 1 -23 20 -15 9 3 13 10 10 16 -8 13 -22 13 -30
-1z"/>
<path d="M995 260 c-9 -29 0 -36 31 -21 29 13 28 35 -3 39 -15 2 -23 -4 -28
-18z"/>
</g>
</svg>
